{
	"asset":{
		"version":"2.0",
		"generator":"Created using the official Cinema 4D glTF Exporter 1.000x284978"
	},
	"buffers":[{
		"uri":"data:application/octet-stream;base64,",
		"byteLength":69936
	}],
	"scenes":[{
		"nodes":[0]
	}],
	"nodes":[{
		"name":"Voronoi Fracture",
		"children":[1]
	},
	{
		"name":"Cylinder_fracturepart1",
		"mesh":0
	}],
	"meshes":[{
		"name":"Cylinder_fracturepart1",
		"primitives":[{
			"attributes":{
				"POSITION":1
			},
			"indices":0,
			"material":0
		}]
	}],
	"bufferViews":[{
		"buffer":0,
		"byteOffset":0,
		"byteLength":36504,
		"target":34963
	},
	{
		"buffer":0,
		"byteOffset":36504,
		"byteLength":33432,
		"target":34962
	}],
	"accessors":[{
		"bufferView":0,
		"type":"SCALAR",
		"componentType":5123,
		"count":18252,
		"byteOffset":0,
		"min":[0],
		"max":[2785]
	},
	{
		"bufferView":1,
		"type":"VEC3",
		"componentType":5126,
		"count":2786,
		"byteOffset":0,
		"min":[-313.0196838378906,
		-1900.0,
		-626.0393676757813],
		"max":[313.0196838378906,
		1900.0,
		626.0393676757813]
	}],
	"materials":[{
		"pbrMetallicRoughness":{
			"metallicFactor":1.0,
			"baseColorFactor":[1.0,
			0.6181666666666665,
			0.20999999999999997,
			1.0],
			"roughnessFactor":0.1
		},
		"emissiveFactor":[0.0,
		0.0,
		0.0],
		"alphaMode":"OPAQUE",
		"doubleSided":false,
		"name":"Mat"
	}]
}