{
	"asset":{
		"version":"2.0",
		"generator":"Created using the official Cinema 4D glTF Exporter 1.000x284978"
	},
	"scenes":[{
		"nodes":[0]
	}],
	"buffers":[{
		"uri":"data:application/octet-stream;base64,",
		"byteLength":40224
	}],
	"nodes":[{
		"name":"Voronoi Fracture",
		"children":[1]
	},
	{
		"name":"Cube_fracturepart1",
		"mesh":0
	}],
	"meshes":[{
		"name":"Cube_fracturepart1",
		"primitives":[{
			"attributes":{
				"POSITION":1
			},
			"indices":0
		}]
	}],
	"accessors":[{
		"bufferView":0,
		"type":"SCALAR",
		"componentType":5123,
		"count":10704,
		"min":[0],
		"byteOffset":0,
		"max":[1567]
	},
	{
		"bufferView":1,
		"type":"VEC3",
		"componentType":5126,
		"count":1568,
		"min":[-220.0,
		-24.416833877563478,
		-220.0],
		"byteOffset":0,
		"max":[220.0,
		24.416833877563478,
		220.0]
	}],
	"bufferViews":[{
		"buffer":0,
		"byteOffset":0,
		"byteLength":21408,
		"target":34963
	},
	{
		"buffer":0,
		"byteOffset":21408,
		"byteLength":18816,
		"target":34962
	}]
}