{
	"asset":{
		"version":"2.0",
		"generator":"Created using the official Cinema 4D glTF Exporter 1.000x284978"
	},
	"scenes":[{
		"nodes":[0]
	}],
	"buffers":[{
		"uri":"data:application/octet-stream;base64,",
		"byteLength":59136
	}],
	"nodes":[{
		"name":"Voronoi Fracture.1",
		"children":[1]
	},
	{
		"name":"Sphere_fracturepart1",
		"translation":[1.404795527458191,
		-2.3519070148468019,
		-1.0219649076461793],
		"rotation":[0.0,
		0.0,
		0.0,
		-1.0],
		"scale":[1.0,
		1.0,
		1.0],
		"mesh":0
	}],
	"meshes":[{
		"name":"Sphere_fracturepart1",
		"primitives":[{
			"attributes":{
				"POSITION":1
			},
			"indices":0,
			"material":0
		}]
	}],
	"accessors":[{
		"bufferView":0,
		"type":"SCALAR",
		"componentType":5123,
		"count":15402,
		"min":[0],
		"byteOffset":0,
		"max":[2360]
	},
	{
		"bufferView":1,
		"type":"VEC3",
		"componentType":5126,
		"count":2361,
		"min":[-196.103271484375,
		-197.42152404785157,
		-198.97804260253907],
		"byteOffset":0,
		"max":[196.103271484375,
		197.42152404785157,
		198.97804260253907]
	}],
	"bufferViews":[{
		"buffer":0,
		"byteOffset":0,
		"byteLength":30804,
		"target":34963
	},
	{
		"buffer":0,
		"byteOffset":30804,
		"byteLength":28332,
		"target":34962
	}],
	"materials":[{
		"pbrMetallicRoughness":{
			"baseColorFactor":[0.8,
			0.8,
			0.8,
			1.0],
			"metallicFactor":1.0,
			"roughnessFactor":0.1
		},
		"emissiveFactor":[0.0,
		0.0,
		0.0],
		"name":"Mat",
		"alphaMode":"OPAQUE",
		"doubleSided":false
	}]
}