{
	"asset":{
		"version":"2.0",
		"generator":"Created using the official Cinema 4D glTF Exporter 1.000x284978"
	},
	"scenes":[{
		"nodes":[0]
	}],
	"buffers":[{
		"uri":"data:application/octet-stream;base64,",
		"byteLength":156924
	}],
	"nodes":[{
		"name":"Voronoi Fracture.1",
		"children":[1]
	},
	{
		"name":"Cylinder_fracturepart1",
		"mesh":0
	}],
	"meshes":[{
		"name":"Cylinder_fracturepart1",
		"primitives":[{
			"attributes":{
				"POSITION":1
			},
			"indices":0,
			"material":0
		}]
	}],
	"accessors":[{
		"bufferView":0,
		"type":"SCALAR",
		"componentType":5123,
		"count":40716,
		"min":[0],
		"byteOffset":0,
		"max":[6290]
	},
	{
		"bufferView":1,
		"type":"VEC3",
		"componentType":5126,
		"count":6291,
		"min":[-544.0,
		-560.2153930664063,
		-544.0],
		"byteOffset":0,
		"max":[544.0,
		560.2153930664063,
		544.0]
	}],
	"bufferViews":[{
		"buffer":0,
		"byteOffset":0,
		"byteLength":81432,
		"target":34963
	},
	{
		"buffer":0,
		"byteOffset":81432,
		"byteLength":75492,
		"target":34962
	}],
	"materials":[{
		"pbrMetallicRoughness":{
			"baseColorFactor":[0.8,
			0.8,
			0.8,
			1.0],
			"metallicFactor":1.0,
			"roughnessFactor":0.1
		},
		"emissiveFactor":[0.0,
		0.0,
		0.0],
		"name":"Mat",
		"alphaMode":"OPAQUE",
		"doubleSided":false
	}]
}